<svg id="Layer_1" data-name="Layer 1" xmlns="http://www.w3.org/2000/svg" xmlns:xlink="http://www.w3.org/1999/xlink" viewBox="0 0 600.65 506.81" width="406" height="306" class="illustration styles_illustrationTablet__1DWOa"><defs><linearGradient id="linear-gradient" x1="332.5" y1="342.53" x2="358.06" y2="551.48" gradientUnits="userSpaceOnUse"><stop offset="0" stop-color="#010101" stop-opacity="0"></stop><stop offset="0.95" stop-color="#010101"></stop></linearGradient><linearGradient id="linear-gradient-2" x1="298.18" y1="404.43" x2="342.4" y2="404.43" xlink:href="#linear-gradient"></linearGradient><linearGradient id="linear-gradient-3" x1="139.31" y1="388.93" x2="792.09" y2="293.1" xlink:href="#linear-gradient"></linearGradient><linearGradient id="linear-gradient-4" x1="286.78" y1="314.53" x2="996.31" y2="411.49" xlink:href="#linear-gradient"></linearGradient><linearGradient id="linear-gradient-5" x1="176.55" y1="213.32" x2="544.09" y2="295.62" gradientUnits="userSpaceOnUse"><stop offset="0" stop-color="#fff" stop-opacity="0"></stop><stop offset="0.95" stop-color="#fff"></stop></linearGradient><linearGradient id="linear-gradient-6" x1="176.19" y1="214.32" x2="536.35" y2="294.97" xlink:href="#linear-gradient-5"></linearGradient><linearGradient id="linear-gradient-7" x1="308.22" y1="380.56" x2="308.22" y2="410.62" xlink:href="#linear-gradient"></linearGradient><linearGradient id="linear-gradient-8" x1="327.86" y1="375.39" x2="327.86" y2="405.45" xlink:href="#linear-gradient"></linearGradient></defs><title>Macbook</title><path d="M219.66,84.47c-44.11,37.37-106,53.25-140.89,99.36A124.35,124.35,0,0,0,55.45,277.3c4.44,27.8,18.41,54.06,18.19,82.21-.24,30.36-17.06,59.8-12,89.74,7.43,44.4,60.27,67.63,105,63s85-28.37,127.41-43.32a336.06,336.06,0,0,1,113.48-19.05c37.26.23,74.3,6.66,111.56,6.39s76.32-8.22,104.45-32.65S664.78,355,645.44,323.11c-17.61-29-56.55-41.78-69.2-73.25-8.16-20.29-3.15-43.13-3.49-65-.84-55.66-41.33-108.42-94.86-123.64-25-7.12-51.57-6.62-77.14-11.51-36.17-6.93-60-50.09-93.31-42.94C274,14,244.49,63.45,219.66,84.47Z" transform="translate(-53.96 -5.98)" fill="#6AB7FF" opacity="0.24" style="isolation: isolate;"></path><path d="M88,343.7s-4.14,5.82,6.2,10.89,246.9,59.76,246.9,59.76a47.17,47.17,0,0,0,19-3.2c10.34-3.94,212.43-56,212.43-56s5.07-2,5.92-3.38,0-8.18,0-8.18Z" transform="translate(-53.96 -5.98)" fill="#6AB7FF"></path><path d="M88,343.7s-4.14,5.82,6.2,10.89,246.9,59.76,246.9,59.76a47.17,47.17,0,0,0,19-3.2c10.34-3.94,212.43-56,212.43-56s5.07-2,5.92-3.38,0-8.18,0-8.18Z" transform="translate(-53.96 -5.98)" fill="url(#linear-gradient)"></path><path d="M341.9,414c-3.82.46-7.56-1.07-11.18-2.36-10.57-3.76-21.93-5.77-31.47-11.68a2,2,0,0,1-1-1.12,1.58,1.58,0,0,1,.24-1.11c1-1.86,3.27-2.63,5.37-2.88,6-.73,11.95,1.42,17.87,2.72,3.73.83,7.52,1.32,11.22,2.29,2.12.55,8,1.62,9.26,3.51C342.69,404.17,342.23,414,341.9,414Z" transform="translate(-53.96 -5.98)" fill="url(#linear-gradient-2)"></path><polygon points="323.25 301.26 519.42 337.34 287.55 397.09 323.25 301.26" fill="#6AB7FF"></polygon><polygon points="313.11 337.71 415.7 356.88 289.07 392.64 313.11 337.71" fill="#6AB7FF"></polygon><polygon points="313.11 337.71 415.7 356.88 289.07 392.64 313.11 337.71" fill="url(#linear-gradient-3)"></polygon><polygon points="435.24 321.93 352.56 341.1 314.98 334.33 329.26 302.76 435.24 321.93" fill="url(#linear-gradient-4)"></polygon><path d="M98.11,350.89l228.13,56A14.53,14.53,0,0,0,343,398.63L460.61,129.78a10.59,10.59,0,0,0-9-14.82l-247-16.38a14.54,14.54,0,0,0-14.19,8.47l-102,223.69A14.53,14.53,0,0,0,98.11,350.89Z" transform="translate(-53.96 -5.98)" fill="#6AB7FF"></path><path d="M98.11,350.89l228.13,56A14.53,14.53,0,0,0,343,398.63L460.61,129.78a10.59,10.59,0,0,0-9-14.82l-247-16.38a14.54,14.54,0,0,0-14.19,8.47l-102,223.69A14.53,14.53,0,0,0,98.11,350.89Z" transform="translate(-53.96 -5.98)" fill="url(#linear-gradient-5)"></path><path d="M99.09,350.59l224,55.77a14.22,14.22,0,0,0,16.48-8.26L455,130.5a10.55,10.55,0,0,0-8.84-14.75L203.62,99.45a14.23,14.23,0,0,0-13.92,8.43L89.51,330.53A14.51,14.51,0,0,0,99.09,350.59Z" transform="translate(-53.96 -5.98)" fill="url(#linear-gradient-6)"></path><g id="c5Uefy"><path d="M274.58,227.87l-1.08.69a22.78,22.78,0,0,0-4.25,3.37c-3.15,3.29-4.84,6.54-5.19,9.74a3.79,3.79,0,0,0,.63,3c.08.09.18.17.28.27l-.66.75a57.81,57.81,0,0,1-8,7.37,22.35,22.35,0,0,1-2.27,1.47c-1.62.93-2.92,1.13-3.82.51-.54-.38-1.05-.8-1.57-1.19a3.7,3.7,0,0,0-1.53-.69,6.87,6.87,0,0,0-3.13.46,11.68,11.68,0,0,1-2.59.62,1.8,1.8,0,0,1-1.68-.66A4.24,4.24,0,0,1,239,251a27,27,0,0,1,1.22-7.1,37.29,37.29,0,0,1,3.14-7.67,40.29,40.29,0,0,1,6.15-8.62,24.16,24.16,0,0,1,5.4-4.41,7.84,7.84,0,0,1,5.1-1.31,6.45,6.45,0,0,1,2.72,1.22c.33.22.69.41,1,.64a2.67,2.67,0,0,0,2.13.2c1-.23,1.94-.48,2.91-.7a7,7,0,0,1,3.18-.13,3.18,3.18,0,0,1,2.49,2.92c.07.51.08,1.07.11,1.6A1.8,1.8,0,0,1,274.58,227.87Z" transform="translate(-53.96 -5.98)" fill="#fff"></path><path d="M264.73,223a25.72,25.72,0,0,1,5.78-6.61,13.69,13.69,0,0,1,6.44-2.9,7,7,0,0,1-.92,1.66,23.27,23.27,0,0,1-7.39,6.88,6.42,6.42,0,0,1-3.2,1Z" transform="translate(-53.96 -5.98)" fill="#fff"></path></g><polygon points="302.49 398.03 313.95 394.65 313.76 397.47 302.49 400.75 302.49 398.03" fill="url(#linear-gradient-7)"></polygon><polygon points="322.12 392.86 333.59 389.48 333.4 392.3 322.12 395.59 322.12 392.86" fill="url(#linear-gradient-8)"></polygon></svg>