<svg id="Layer_1" data-name="Layer 1" xmlns="http://www.w3.org/2000/svg" xmlns:xlink="http://www.w3.org/1999/xlink" viewBox="0 0 388.99 284.79" width="406" height="306" class="illustration styles_illustrationTablet__1DWOa"><defs><linearGradient id="linear-gradient" x1="150.02" y1="180.66" x2="409.05" y2="360.29" gradientUnits="userSpaceOnUse"><stop offset="0.01"></stop><stop offset="0.13" stop-opacity="0.69"></stop><stop offset="0.25" stop-opacity="0.32"></stop><stop offset="1" stop-opacity="0"></stop></linearGradient><linearGradient id="linear-gradient-2" x1="203.44" y1="154.2" x2="222.2" y2="119.68" xlink:href="#linear-gradient"></linearGradient><linearGradient id="linear-gradient-3" x1="279.66" y1="173.68" x2="160.14" y2="205.71" xlink:href="#linear-gradient"></linearGradient><linearGradient id="linear-gradient-4" x1="306.85" y1="187.57" x2="88.74" y2="145.9" xlink:href="#linear-gradient"></linearGradient><linearGradient id="linear-gradient-5" x1="221.09" y1="175.07" x2="253.61" y2="138.48" xlink:href="#linear-gradient"></linearGradient></defs><title>18</title><path d="M188.86,16.34c-24,2.27-47.46,13-63.51,31-10.1,11.33-17,25.06-24.72,38.14A342.75,342.75,0,0,1,56.25,145c-13.26,14.26-27.9,27.61-37.6,44.49-8.22,14.28-12.57,31-11,47.37s9.27,32.38,22,42.8c19.2,15.68,46,17,70.78,17.55l122.28,2.87c28.78.68,57.65,1.35,86.25-1.87,11.95-1.34,24-3.43,34.84-8.67,20.28-9.82,33.85-29.51,44.45-49.38,3.54-6.64,6.9-13.56,7.8-21,1.85-15.4-7.12-30.12-17.87-41.3S354.56,157.49,345.32,145c-16.86-22.72-19.48-53.33-34.92-77C287.55,32.88,229,12.54,188.86,16.34Z" transform="translate(-7.32 -15.89)" fill="#6AB7FF" opacity="0.18" style="isolation: isolate;"></path><path d="M213,259.68l53.58,40.95s63.06.53,87.7-17.4L235.8,248.13l-2.43,4.45,32.4,21.8L223.13,257Z" transform="translate(-7.32 -15.89)" fill="url(#linear-gradient)"></path><polygon points="110.89 213.17 216.38 152.76 216.38 10.23 110.89 70.64 110.89 213.17" fill="#fff"></polygon><polygon points="177.92 65.83 177.92 108.06 207.69 89.41 207.69 48.37 177.92 65.83" fill="#6AB7FF" opacity="0.38"></polygon><path d="M193.62,119.82c.93,3.9,3.27,7.3,5.65,10.53s4.88,6.46,6.25,10.23c1.6,4.43,1.51,9.27,1.4,14L206.58,169a4.77,4.77,0,0,1-.31,1.88,4.55,4.55,0,0,1-1.86,1.72c-4.69,2.95-9.58,6-15.08,6.66-1.73.22-3.57.22-5.1,1.06a4.9,4.9,0,0,0-2.51,4.91,4.31,4.31,0,0,0,4.06,3.58c2.13,0,3.83-1.65,5.54-2.93a37.55,37.55,0,0,1,9.25-4.55l17.4-6.68c1.95-.75,4.05-1.63,5-3.48a7.19,7.19,0,0,0,.65-2.38c1.14-8.85-3.34-17.36-7.68-25.17L206.2,126c-3.09-5.55-5.79-12.12-9.66-17.13C193.15,110.87,192.8,116.4,193.62,119.82Z" transform="translate(-7.32 -15.89)" fill="#6AB7FF" opacity="0.18" style="isolation: isolate;"></path><path d="M231.7,147l-7.51,8.14-.44-.18c-1.85-.78-8.95-3.79-10.52-4.9s-12.41-24-14.54-28.49l-.37-.78,5.89-3.62,14.49,24Z" transform="translate(-7.32 -15.89)" fill="#6AB7FF"></path><path d="M228.15,150.14l-4.4,4.77c-1.85-.78-8.95-3.79-10.52-4.9s-12.41-24-14.54-28.49l2-1.21,14.49,24Z" transform="translate(-7.32 -15.89)" fill="url(#linear-gradient-2)"></path><path d="M213,132.62a1.9,1.9,0,0,0,.3,1,7.51,7.51,0,0,1,.77,3.22,5.81,5.81,0,0,0,.31,2.67,6.33,6.33,0,0,0,1.68,1.62,6.23,6.23,0,0,1,1.69,2.3c.32.75.74,1.75,1.56,1.67a1.24,1.24,0,0,0,.73-.38,4.77,4.77,0,0,0,1.11-2.08c1.2-3.7,2.33-8.68,1.4-12.55-.75-3.08-4.08-3.06-5.94-1a9.56,9.56,0,0,1-2,2.16C214.08,131.6,213.11,131.8,213,132.62Z" transform="translate(-7.32 -15.89)" fill="#ffbbab"></path><path d="M199.69,186.65a15.38,15.38,0,0,1-5,1.06,2.86,2.86,0,0,0-1.26.39,1.07,1.07,0,0,0-.5,1.14c.13.39.55.66.62,1.06a.84.84,0,0,1-.1.56c-.37.74-1.3.95-2,1.39a2.57,2.57,0,0,0-1.11,1.36,2.14,2.14,0,0,0,.15,1.73,2.56,2.56,0,0,0,1.28,1,7.74,7.74,0,0,0,2.58.4,5.85,5.85,0,0,0,4.75-1.22,7.59,7.59,0,0,0,1.14-1c.93-1.06,1.16-2.58,2-3.74a3,3,0,0,0,.74-1.3,1.68,1.68,0,0,0-.19-.91,4.18,4.18,0,0,0-3.11-2" transform="translate(-7.32 -15.89)" fill="#ffbbab"></path><path d="M220.18,252.71s-8.48.7-8.68,4.29,8.73,6.66,13.68,5.53,2.25-8.59,2.25-8.59Z" transform="translate(-7.32 -15.89)" fill="#6AB7FF"></path><path d="M232.85,242.66s-3.83-1.73-3.83,2,1.29,6.12,4.35,7.89,6.33.45,6.51-.44.22-6,.22-6Z" transform="translate(-7.32 -15.89)" fill="#6AB7FF"></path><path d="M227.43,231.08v20.8a3.07,3.07,0,0,1-3.06,3.06h-1.24a3.11,3.11,0,0,1-2.95-2.23,2.87,2.87,0,0,1-.11-.74l-.28-9.14-.25-8.33,0-1.36-.05-2.06Z" transform="translate(-7.32 -15.89)" fill="#ffbbab"></path><path d="M227.43,251.88v2.06a3.07,3.07,0,0,1-3.06,3.06h-1.24a3,3,0,0,1-2.89-3.06l-.06-1.23a3.11,3.11,0,0,0,2.95,2.23h1.24A3.07,3.07,0,0,0,227.43,251.88Z" transform="translate(-7.32 -15.89)" fill="#fff"></path><path d="M240.1,243v2.06a3.07,3.07,0,0,1-3.06,3.06H235.8a3,3,0,0,1-2.89-3.06l-.06-1.23a3.1,3.1,0,0,0,3,2.23H237A3.07,3.07,0,0,0,240.1,243Z" transform="translate(-7.32 -15.89)" fill="#fff"></path><path d="M232.13,222.58l.61,20.5a3.44,3.44,0,0,0,3.44,3.34h.48A3.44,3.44,0,0,0,240.1,243V222.58Z" transform="translate(-7.32 -15.89)" fill="#ffbbab"></path><path d="M245.72,220.16c-.58,3.41-3.32,4.74-5.56,6.92-1.7,1.66-2.79,3.25-5,4.36a18.46,18.46,0,0,1-6.84,2,15.25,15.25,0,0,1-11.06-3.71,6.91,6.91,0,0,1-2.13-2.56,8.1,8.1,0,0,1-.48-2.63c-.78-12.82,1.13-25.64,1.06-38.48a53.35,53.35,0,0,0-.73-9.37c-.64-3.49-1.84-6.86-2.56-10.34-.9-4.33-1.64-9-1-13.43.75-5,4.9-7.24,9.08-9.2l1.25-.58a8,8,0,0,1,2.29-.78,5.66,5.66,0,0,1,2.16.2,13,13,0,0,1,6.41,4.26,29.68,29.68,0,0,1,4.06,6.67,21,21,0,0,1,2.2,7.53c0,.26,0,.52,0,.79,0,2.2-.69,4.21-1,6.39-.33,2.49-.65,5-1,7.48a30.69,30.69,0,0,0-.34,7.59,32.64,32.64,0,0,0,1.91,6.87,180.19,180.19,0,0,1,6.89,25.66A12.46,12.46,0,0,1,245.72,220.16Z" transform="translate(-7.32 -15.89)" fill="#6AB7FF"></path><path d="M245.72,220.16c-.58,3.41-3.32,4.74-5.56,6.92-1.7,1.66-2.79,3.25-5,4.36a18.46,18.46,0,0,1-6.84,2,2.79,2.79,0,0,1-.65-.54,4.61,4.61,0,0,1-.86-3.17c.07-4.41,1.7-8.63,2.4-13,.77-4.84.38-9.78,0-14.67q-.93-11.61-1.87-23.21a19.2,19.2,0,0,0-.92-5.22,32.75,32.75,0,0,0-2.5-4.52c-2.63-4.64-2.06-9.11-3.22-14-1-4.11-2-7.21-.15-11.39l1.25-.58a8,8,0,0,1,2.29-.78,5.66,5.66,0,0,1,2.16.2,13,13,0,0,1,6.41,4.26,29.68,29.68,0,0,1,4.06,6.67,21,21,0,0,1,2.2,7.53c0,.26,0,.52,0,.79,0,2.2-.69,4.21-1,6.39-.33,2.49-.65,5-1,7.48a30.69,30.69,0,0,0-.34,7.59,32.64,32.64,0,0,0,1.91,6.87,180.19,180.19,0,0,1,6.89,25.66A12.46,12.46,0,0,1,245.72,220.16Z" transform="translate(-7.32 -15.89)" fill="url(#linear-gradient-3)"></path><path d="M222.91,151s-3.37,23.75-5.15,28-13.82,12.76-13.82,12.76l-4-3.63-1.86-1.69s9.22-7.8,11.52-9,3.72-18.61,3.7-24.33,5.8-5.41,5.8-5.41C223.44,146.12,222.91,151,222.91,151Z" transform="translate(-7.32 -15.89)" fill="#6AB7FF"></path><path d="M256.61,170.53a7.56,7.56,0,0,1-3.74,5.17,12.48,12.48,0,0,1-7.3,2,10,10,0,0,1-6.83-3.14,23.38,23.38,0,0,0-1.86-2.11c-1.89-1.67-4.69-1.75-7-2.84-3.32-1.59-5.24-5.21-5.92-8.82s-.34-7.33-.35-11a7.43,7.43,0,0,0-.77-3.85c-1.19-2-3.25-2.73-4-5.13a.54.54,0,0,1,0-.25.49.49,0,0,1,.35-.25,3.92,3.92,0,0,0,1.44-.69,1.36,1.36,0,0,0,.44-1.45.83.83,0,0,0-1.31-.31c.39-1.08-.47-2.15-1-3.14l-.22-.41a7.09,7.09,0,0,1-.41-5.1,2.49,2.49,0,0,0,.17-.81,3.7,3.7,0,0,0-.23-.85c-.41-1.38.49-2.82,1.59-3.75a10.06,10.06,0,0,1,11.57-.53c3.16,2.08,4.22,6.16,4.81,9.89a2.4,2.4,0,0,0,.4,1.15,2.3,2.3,0,0,0,.77.53c1.88.87,4,1.25,5.68,2.5,3,2.23,3.42,6.43,3.41,10.13s-.12,7.77,2.22,10.63a31.86,31.86,0,0,0,3.74,3.3,14.1,14.1,0,0,1,3.9,5.81c.05.13.09.27.14.4A7.1,7.1,0,0,1,256.61,170.53Z" transform="translate(-7.32 -15.89)" fill="#fc682d"></path><path d="M201.5,110a10.41,10.41,0,0,0-.77-2.92,3.09,3.09,0,0,0-2.28-1.79c-1.53-.15-2.82,1.35-3,2.88a11.46,11.46,0,0,0,.65,4.54c.23.9.33,2-.43,2.56a4.12,4.12,0,0,0-.63.39c-.53.52,0,1.47.64,1.79s1.48.32,2.12.69a13.62,13.62,0,0,1,1.26,1c1.23.91,4.2.55,4.41-1.3.12-1-.77-2.67-1-3.69C202,112.82,201.73,111.43,201.5,110Z" transform="translate(-7.32 -15.89)" fill="#ffbbab"></path><path d="M222.91,151s-3.37,23.75-5.15,28-13.82,12.76-13.82,12.76l-4-3.63c2.72-2.18,11.21-8.94,13.47-10.34,2.7-1.66,5.69-30.13,5.69-30.13C223.44,146.12,222.91,151,222.91,151Z" transform="translate(-7.32 -15.89)" fill="url(#linear-gradient-4)"></path><path d="M256.61,170.53a7.56,7.56,0,0,1-3.74,5.17,12.48,12.48,0,0,1-7.3,2,10,10,0,0,1-6.83-3.14,23.38,23.38,0,0,0-1.86-2.11c-1.89-1.67-4.69-1.75-7-2.84-3.32-1.59-5.24-5.21-5.92-8.82s-.34-7.33-.35-11a7.43,7.43,0,0,0-.77-3.85c-1.19-2-3.25-2.73-4-5.13a.54.54,0,0,1,0-.25c1.32,1.38,3.49,2.07,4.93,3.45,2,1.95,2.39,5,2.71,7.8s.89,5.88,3.13,7.58l1.14-1.69a12,12,0,0,0,8.37,8.85l2-3.73c.08,2.91.77,6.1,3.09,7.84,3.24,2.42,9.9,2.05,11.6-1.82.13-.3.28-.74.47-1.23A7.1,7.1,0,0,1,256.61,170.53Z" transform="translate(-7.32 -15.89)" fill="url(#linear-gradient-5)"></path><polygon points="93.53 200.97 44.69 222.41 44.69 181.89 93.53 160.46 93.53 200.97" fill="none" stroke="#fff" stroke-miterlimit="10"></polygon><path d="M95.2,205.75A5.93,5.93,0,0,1,94.09,209a6.19,6.19,0,0,1-2.69,2.25l-26.1,10.4c-2.1.83-3.81-.29-3.81-2.5a5.94,5.94,0,0,1,1.12-3.28,6.19,6.19,0,0,1,2.69-2.25l.88-.35a7.17,7.17,0,0,1-.28-2,11.79,11.79,0,0,1,2.2-6.47,12.17,12.17,0,0,1,5.31-4.43l2.21-.88c2.9-1.16,5.41-.43,6.66,1.61a6.4,6.4,0,0,1,2-1.33l.57-.23c2.49-1,4.51.33,4.51,3v.23a6.07,6.07,0,0,1-.17,1.39l2.16-.86C93.5,202.42,95.2,203.54,95.2,205.75Z" transform="translate(-7.32 -15.89)" fill="#fff"></path><g opacity="0.43"><path d="M178.08,131.56c-1.92-11.19-7-16.88-14.91-18.39-9-1.73-18.8,4.64-23.94,15.49a32.25,32.25,0,0,0-3,18.74c.72,5,4.37,7.85,8.42,6.66s7.11-5.65,7.31-10.58a17.82,17.82,0,0,0-.15-2.43,8,8,0,0,1,4.12-8c2.69-1.26,5.43,0,6.25,3.1a20.54,20.54,0,0,1,.33,7.73,27.12,27.12,0,0,1-9.12,17.73c-.3.26-.61.49-.9.77a2.06,2.06,0,0,0-.46,2.36,1,1,0,0,0,1.68.33c7.47-5.8,11.93-15.93,11.52-25.79a16.33,16.33,0,0,0-1-5.74c-1.67-3.93-5.81-5.39-9.38-3.32a12.19,12.19,0,0,0-5.54,12c.51,3.68-1.41,7.3-4.5,8.49-2.92,1.14-5.64-.77-6.06-4.41A28.52,28.52,0,0,1,146,123.21c6.95-7.87,16.85-9.21,23.55-3.37,3.22,2.8,5.1,6.81,5.85,11.86a43,43,0,0,1,.15,11.17c0,.23-.07.47-.08.7,0,1,.4,1.61,1.1,1.61a1.61,1.61,0,0,0,1.42-1.62,52.49,52.49,0,0,0,.38-5.27C178.35,135.68,178.15,133.1,178.08,131.56Z" transform="translate(-7.32 -15.89)" fill="#6AB7FF"></path></g><g opacity="0.43"><path d="M171.63,135.06c-1.17-9.64-7.31-15.16-14.42-13.77-6.47,1.27-11.93,7-14,14.81a22.23,22.23,0,0,0-.54,8.75c.17,1.2.91,1.67,1.75,1.16a2.06,2.06,0,0,0,.82-2c-.07-.91-.2-1.81-.19-2.73.09-6.21,3.45-12.45,8.11-15.09,4.51-2.56,8.63-2.36,12.25,1a11.65,11.65,0,0,1,3.3,6.55,35.47,35.47,0,0,1-2.89,21.16c-.28.62-.58,1.22-.85,1.83a1.85,1.85,0,0,0,.3,2.34c.65.45,1.39.11,1.88-.88C171,150.47,172.67,142.5,171.63,135.06Z" transform="translate(-7.32 -15.89)" fill="#6AB7FF"></path></g><g opacity="0.43"><path d="M150.31,107.65c-6.3,2.79-12.62,8.92-17,18.45-.58,1.29-1.07,2.65-1.57,4-.41,1.14-.2,2,.5,2.35s1.43-.16,1.84-1.36c2.56-7.41,6.55-13.3,12.06-17.32,8.84-6.45,17.5-7.58,25.75-2.07a25.41,25.41,0,0,1,2.88,2.45,1.16,1.16,0,0,0,2-.23,1.9,1.9,0,0,0-.24-2.47A20.53,20.53,0,0,0,163.75,105C159.8,104.63,155.84,105.31,150.31,107.65Z" transform="translate(-7.32 -15.89)" fill="#6AB7FF"></path></g><g opacity="0.43"><path d="M150.08,99.56c-4.79,1.92-9.48,5.73-13.71,10.7a2,2,0,0,0-.34,2.53c.5.71,1.21.65,1.92-.18a37.81,37.81,0,0,1,8.86-7.92c6.12-3.72,12.3-5.12,18.55-3.86.21,0,.42.1.64.13a1.58,1.58,0,0,0,1.6-1.43c.18-.89-.17-1.72-.9-1.83a40.72,40.72,0,0,0-4.93-.61A26.57,26.57,0,0,0,150.08,99.56Z" transform="translate(-7.32 -15.89)" fill="#6AB7FF"></path></g><g opacity="0.43"><path d="M147.4,160.93c7.37-3.11,11-11.53,11.27-18.21a30.63,30.63,0,0,0-.18-4c-.1-1.09-.74-1.59-1.48-1.32a2,2,0,0,0-1,2.24,18.5,18.5,0,0,1-3.58,13.69,12.78,12.78,0,0,1-6.48,4.66c-.61.21-1.24.33-1.86.52a1.84,1.84,0,0,0-1.23,1.94c0,.9.6,1.48,1.4,1.3C145.28,161.55,146.34,161.22,147.4,160.93Z" transform="translate(-7.32 -15.89)" fill="#6AB7FF"></path></g><g opacity="0.43" style="isolation: isolate;"><path d="M146,180.29a2,2,0,0,0,1.09-1.44,1.67,1.67,0,0,0-.95-2.13c-8.21-1.82-12.93-9.06-14-21.5a78.49,78.49,0,0,1,.87-18.86,1.63,1.63,0,0,0-1-2.05c-.77-.11-1.55.61-1.74,1.62a81.93,81.93,0,0,0-.95,20.08c1.22,13.86,6.77,22.29,16.07,24.35A1,1,0,0,0,146,180.29Z" transform="translate(-7.32 -15.89)" fill="#6AB7FF"></path></g><g opacity="0.43" style="isolation: isolate;"><path d="M149.94,179.33c2-.82,10-4.64,14-13.29a2,2,0,0,0-.44-2.46c-.67-.43-1.55,0-2,.9-3.75,8.17-12.36,11.45-12.45,11.48a2.19,2.19,0,0,0-1.19,2.3c.13,1,.86,1.53,1.64,1.24Z" transform="translate(-7.32 -15.89)" fill="#6AB7FF"></path></g><g opacity="0.43" style="isolation: isolate;"><path d="M162.27,177.58a1.21,1.21,0,0,0,.38-.24c10.57-8.8,14.78-26.5,14.95-27.24a1.69,1.69,0,0,0-.94-2.14c-.76-.17-1.56.51-1.79,1.51-.06.24-4.07,17-13.55,24.85a2.31,2.31,0,0,0-.6,2.57A1.15,1.15,0,0,0,162.27,177.58Z" transform="translate(-7.32 -15.89)" fill="#6AB7FF"></path></g><g opacity="0.43" style="isolation: isolate;"><path d="M147.49,169.8a12.53,12.53,0,0,0,2.17-1.17,2.3,2.3,0,0,0,.81-2.51,1.18,1.18,0,0,0-1.86-.72,8.06,8.06,0,0,1-9.68-.18c-.62-.52-1.52-.24-2,.63a2.1,2.1,0,0,0,.22,2.53A10.23,10.23,0,0,0,147.49,169.8Z" transform="translate(-7.32 -15.89)" fill="#6AB7FF"></path></g></svg>